<?xml version="1.0" encoding="UTF-8"?>
<!DOCTYPE svg PUBLIC "-//W3C//DTD SVG 1.1//EN" "http://www.w3.org/Graphics/SVG/1.1/DTD/svg11.dtd">
<!-- Creator: CorelDRAW 2021 (64-Bit) -->
<svg xmlns="http://www.w3.org/2000/svg" xml:space="preserve" width="6.66666in" height="6.66666in" version="1.1" style="shape-rendering:geometricPrecision; text-rendering:geometricPrecision; image-rendering:optimizeQuality; fill-rule:evenodd; clip-rule:evenodd"
viewBox="0 0 6666.66 6666.66"
 xmlns:xlink="http://www.w3.org/1999/xlink"
 xmlns:xodm="http://www.corel.com/coreldraw/odm/2003">
 <defs>
  <style type="text/css">
   <![CDATA[
    .fil0 {fill:#10A94F}
    .fil1 {fill:#272966}
    .fil5 {fill:#28417E}
    .fil6 {fill:#2A6AA5}
    .fil7 {fill:#2B85BE}
    .fil8 {fill:#2B9BD4}
    .fil4 {fill:#32AF4B}
    .fil3 {fill:#56B946}
    .fil2 {fill:#7AC041}
   ]]>
  </style>
 </defs>
 <g id="Layer_x0020_1">
  <metadata id="CorelCorpID_0Corel-Layer"/>
  <g id="_1712456382448">
   <path class="fil0" d="M1647.16 3490.1c41.71,-115.04 17.55,-397.79 17.55,-534.37l-17.63 -0.04c-72.84,-24.41 -316.93,119.35 -389.15,162.47 -128.3,76.59 -246.33,138.35 -366.03,220l-242.09 188.81c-140.2,113.17 -253.27,234.83 -346.65,394.49 -60.42,103.29 -130.57,293.45 -97.65,475.86 55.82,309.45 388.85,440.7 662.41,509.65 201.99,50.89 393.17,56.96 503.38,82.63 0,-63.15 -51.71,-341.68 -51.71,-534.3 -92.93,-49.19 -214.53,-100.1 -238.14,-210.46 -83.53,-390.31 545.81,-692.48 565.72,-754.76z"/>
   <path class="fil1" d="M1457.49 4575.87c0,553.81 183.97,991.68 672.27,1206.53 268.5,118.15 516.09,42.53 764.12,-80.29 170.27,-84.3 431.72,-292.17 528.5,-436.71 -63.92,5.31 -109.28,28.89 -179.39,44.66 -461.22,103.8 -876.35,-213.73 -940.95,-665.24l-35.67 -85.24c-0.35,-2.06 -0.1,-63.52 0.02,-69.87 1.02,-51.93 1.26,-103.09 1.26,-155.06 0,-96.6 0,-193.17 0,-289.77l-744.01 423.93c-58.85,42.2 -20.54,52.3 -66.17,107.06z"/>
   <path class="fil2" d="M4904.68 2024.97l66.47 0 0 430.97c194.8,0 317.5,-18.18 398.91,103.42 -40.82,175.28 -241.67,267.46 -350.19,373.72 -56.9,55.7 -63.48,90.35 -63.48,195.07 95.76,-2.14 341.62,-76.36 428.79,-105.54 129.07,-43.2 264.57,-93.95 381.38,-152.94 118.22,-59.67 238.67,-112.25 348.4,-185.91 105.69,-70.97 213.75,-160.26 278.17,-273.4 90.47,-158.93 39.41,-277.09 -70.17,-372.99 -174.2,-152.44 -706.73,-109.12 -935.51,-98.37 -66.26,3.12 -188.88,21.4 -246.69,29.09 -113.41,15.1 -195.11,5.03 -236.07,56.88z"/>
   <path class="fil1" d="M3887.67 2800.67l0 1090.84 999.78 0c-50.16,-144.44 -17.16,-1054.5 -17.16,-1280.45 -192.42,0 -854.04,132.41 -982.62,189.61z"/>
   <path class="fil3" d="M3181.08 2404.15l34.73 0.04 0 413.79c-106.49,0 -8.04,-6.11 -51.87,34.39l436.92 -114.56c146.39,-42.69 290.09,-79.62 440.6,-110.93 148.32,-30.86 296.14,-62.38 456.72,-94.85 69.6,-14.07 453.12,-65.72 472.97,-76.1l0 -430.97 -66.47 0c-86.56,-33.45 -349.23,35.54 -448.13,51.79l-1176.06 270.76c-81.39,19.91 -70.05,17.02 -99.41,56.64z"/>
   <path class="fil4" d="M1647.08 2955.7l17.63 0.04c0,136.58 24.17,419.33 -17.55,534.37 80.47,-26.77 667.36,-345.83 1122.27,-497.85 62.33,-20.82 369.35,-111.7 394.51,-139.89 43.83,-40.49 -54.62,-34.39 51.87,-34.39l0 -413.79 -34.73 -0.04c-99.08,-36.91 -694.4,191.54 -790.67,226.35 -130.41,47.13 -244.7,87.93 -376.43,140.63l-280.83 114.61c-58.41,25.53 -64.68,35.91 -86.07,69.95z"/>
   <path class="fil5" d="M1457.49 4575.87c45.62,-54.76 7.31,-64.86 66.17,-107.06l744.01 -423.93c0,96.6 0,193.17 0,289.77 0,51.97 -0.24,103.13 -1.26,155.06 -0.12,6.35 -0.37,67.81 -0.02,69.87l35.67 85.24 0 -1327.09c-110.24,2.46 -368.55,142.3 -449.03,188.71 -70.25,40.51 -142.13,76.38 -206.08,121.41 -64.74,45.58 -121.86,92.75 -189.45,138.02l0 809.99z"/>
   <path class="fil6" d="M3508.47 5334.35c-1.4,59.04 63.98,31.25 241.4,31.19 188,-0.06 774.4,16.12 879.04,-13.87 101.56,-6.45 219.8,-444.55 224.06,-517.08 -4.85,3.05 -22.98,13.31 -28.03,15.37 -77.58,31.35 -920.63,13.88 -1006.17,13.88l-0.04 -12.11c-52,38.54 -88.09,151.67 -155.86,257.73l-145.48 195.84c-23.43,46.37 -7.61,-23.35 -8.92,29.05z"/>
   <path class="fil5" d="M4887.45 3891.51l-999.78 0 0.02 546.48 1016.98 0c-0.08,-144.05 33.67,-429.53 -17.22,-546.48z"/>
   <path class="fil5" d="M4887.45 3891.51c50.9,116.95 17.14,402.43 17.22,546.48l-1016.98 0 -0.02 -546.48 0 -1090.84c-23.84,9.98 -33.39,-27.14 -36.93,102.13 -9.28,337.28 22.7,1540.13 -4.11,1718.2 -12.38,82.12 -48.49,169.31 -27.91,230.73l0.04 12.11c85.54,0 928.59,17.47 1006.17,-13.88 5.05,-2.06 23.19,-12.32 28.03,-15.37 79.64,-71.09 54.17,-2148.54 53.01,-2155.24 -17.12,-98.31 18.99,-32.06 -35.69,-68.3 0,225.95 -33,1136.01 17.16,1280.45z"/>
   <path class="fil4" d="M2422.7 4524.27c0,122.53 58.67,430.89 120.64,430.89 358.33,0 1014.01,-152.74 1120.36,-155.12 52.6,-225.85 34.46,-185.7 34.46,-430.89 -364.5,30.33 -800.42,155.13 -1275.46,155.13z"/>
   <path class="fil7" d="M3108.55 5696.31c32.87,29.44 1015.31,22.76 1123.94,0.08 22.94,1.41 12.28,25.06 110.72,-44.16 106.1,-74.57 244.43,-176.5 285.7,-300.56 -104.64,29.99 -691.04,13.8 -879.04,13.87 -177.42,0.06 -242.8,27.85 -241.4,-31.19 -56.2,22.88 -17.34,-0.22 -65.41,38.56 -49.74,40.12 -102.04,115.02 -250.34,231.75l-72.98 62.07c-24.15,37.31 -5.09,-9.46 -11.2,29.58z"/>
   <path class="fil7" d="M1491.96 2860.65c57.18,0.92 43.04,-5.52 98.77,-29.64l487.24 -202.72c57.83,-23 158.28,-45.62 206.83,-68.93 -7.57,-91.16 -123.26,-407.99 -224.06,-414.91 -60.97,-31.63 -22.59,-39.39 -104.49,-6.13l-167.02 56.61c-34.34,8.45 -60.48,19.04 -82.18,28.36 37.58,39.96 -0.25,18.22 57.77,35.4 55.41,16.41 35.1,-4.5 39.41,-7.94 -173.51,108.08 -185.13,11.81 -319.31,94.77 -5.8,86.93 -11.65,177.25 -17.59,265.54 -9.91,146.98 -41.53,236.29 24.61,249.58z"/>
   <path class="fil8" d="M4232.49 5696.39c-108.63,22.68 -1091.07,29.35 -1123.94,-0.08 -74.27,14.27 -264.87,161.87 -415.83,235.56 -120.5,58.81 -111.91,35.99 -132.14,91.91 576.89,0 990.94,-16.57 1502.24,-221.37l129.33 -61.07c37.58,-30.25 11.81,0.41 40.33,-44.95z"/>
   <path class="fil8" d="M1491.96 2860.65c-66.14,-13.29 -34.53,-102.6 -24.61,-249.58 5.94,-88.29 11.79,-178.62 17.59,-265.54 134.18,-82.96 145.8,13.31 319.31,-94.77 -4.31,3.44 16,24.35 -39.41,7.94 -58.02,-17.18 -20.19,4.56 -57.77,-35.4 21.7,-9.32 47.84,-19.91 82.18,-28.36l167.02 -56.61c81.9,-33.26 43.52,-25.51 104.49,6.13 -24.08,-57.59 -2.56,-26.2 -46.7,-73.85 -100.37,-108.41 -393.17,-256.02 -556.56,-269.62l0 1085.87c69.54,0 7.33,5.01 34.47,-26.2z"/>
   <path class="fil2" d="M5025.33 4110.6l0 293c122.45,-2.73 676.63,-271.04 723.92,-448.13l-351.57 79.31c-93.91,23.86 -281.73,73.8 -372.34,75.81z"/>
   <path class="fil4" d="M4180.78 1800.89c84.93,4.6 127.48,99.18 187.92,139.65 -101.22,-5.41 -10.51,-4.25 -49.96,32.8 121.74,-7.15 410.61,-71.6 585.93,-86.2l0 -224.06c-105,0 -269.9,33.55 -364.38,49.29 -80.47,13.39 -307.36,22.47 -359.51,88.52z"/>
   <path class="fil3" d="M4577.12 1214.96c5.62,-1.18 11.3,-2.81 13.05,-3.56l21.42 -13.76c-41.76,-27.97 -61.28,-52.24 -98,-91 -51.07,-53.91 -39,-58.12 -125.97,-64.13 -70.23,-27.14 -313.79,27.5 -340.64,38.64 -39.66,16.43 -19.73,-0.51 -45.8,40.37 -10.89,17.08 -22.31,47.96 -33.14,70.3 -26.24,54.15 -49.25,84.67 -63.03,143.78 143.66,-11.95 477.65,-109.24 672.12,-120.64z"/>
   <path class="fil3" d="M4198 1438.93c203.05,-10.2 59.39,16.47 215.51,94.83l-3.16 60.38 494.32 -68.93 0 -224.07 -628.33 94.32c-92.3,25.08 -36.87,-9 -78.34,43.48z"/>
   <path class="fil2" d="M4198 921.93c161.19,-37.54 542.57,-103.42 706.67,-103.42l0 -224.06c-241.72,0 -677.58,218.56 -706.67,327.47z"/>
   <path class="fil4" d="M4410.35 1594.14l3.16 -60.38c-156.12,-78.35 -12.46,-105.02 -215.51,-94.83 -94.8,-36.62 -218.72,32.15 -327.47,34.57 -19.46,83.47 -17.24,119.89 -17.24,224.06l485.18 -83.39c60.7,-12.46 19.91,7.39 71.88,-20.03z"/>
   <path class="fil0" d="M4318.74 1973.34c39.45,-37.05 -51.26,-38.21 49.96,-32.8 -60.44,-40.47 -102.99,-135.05 -187.92,-139.65 -94.83,-36.63 -218.72,32.12 -327.49,34.54l0 224.08c141.65,0 329.98,-66.8 465.45,-86.17z"/>
   <path class="fil3" d="M4387.61 1042.51c86.97,6 74.9,10.22 125.97,64.13 36.73,38.76 56.25,63.03 98,91l-21.42 13.76c-1.75,0.75 -7.43,2.38 -13.05,3.56l259.81 -33.28c72.7,-10.26 66.48,-6.43 69.94,-85.18 2.02,-45.72 -2.2,-108.93 -2.2,-157.32l-391.76 55.74c-105.8,15.78 -95.97,10.44 -125.3,47.59z"/>
  </g>
 </g>
</svg>
